<svg width="18" height="18" viewBox="0 0 18 18" fill="none" xmlns="http://www.w3.org/2000/svg">
<circle cx="9" cy="9" r="9" fill="#FFAF19"/>
<path d="M7.84766 12H7.12109V7.18359L5.66406 7.71875V7.0625L7.73438 6.28516H7.84766V12ZM13.6914 12H9.96484V11.4805L11.9336 9.29297C12.2253 8.96224 12.4258 8.69401 12.5352 8.48828C12.6471 8.27995 12.7031 8.0651 12.7031 7.84375C12.7031 7.54688 12.6133 7.30339 12.4336 7.11328C12.2539 6.92318 12.0143 6.82812 11.7148 6.82812C11.3555 6.82812 11.0755 6.93099 10.875 7.13672C10.6771 7.33984 10.5781 7.6237 10.5781 7.98828H9.85547C9.85547 7.46484 10.0234 7.04167 10.3594 6.71875C10.6979 6.39583 11.1497 6.23438 11.7148 6.23438C12.2435 6.23438 12.6615 6.3737 12.9688 6.65234C13.276 6.92839 13.4297 7.29688 13.4297 7.75781C13.4297 8.31771 13.0729 8.98438 12.3594 9.75781L10.8359 11.4102H13.6914V12Z" fill="black"/>
</svg>
